HIERARCHY
ROOT Hips
{
	OFFSET 0.000000 0.000000 0.000000
	CHANNELS 6 Xposition Yposition Zposition Xrotation Yrotation Zrotation
	JOINT LeftUpLeg_virtual
	{
		OFFSET 0.000000 0.000000 0.000000
		CHANNELS 3 Xrotation Yrotation Zrotation
		JOINT LeftUpLeg
		{
			OFFSET 10.205400 -3.823500 0.155100
			CHANNELS 3 Xrotation Yrotation Zrotation
			JOINT LeftLeg
			{
				OFFSET 0.708757 -12.982077 0.567790
				CHANNELS 3 Xrotation Yrotation Zrotation
				JOINT LeftFoot
				{
					OFFSET -0.708756 -10.717838 -2.184338
					CHANNELS 3 Xrotation Yrotation Zrotation
					JOINT LeftToeBase
					{
						OFFSET 0.108149 -7.191104 7.560241
						CHANNELS 3 Xrotation Yrotation Zrotation
						JOINT LeftToe_End
						{
							OFFSET 0.070230 0.081724 4.490308
							CHANNELS 3 Xrotation Yrotation Zrotation
							End Site
							{
								OFFSET 0 0 0
							}
						}
					}
				}
			}
		}
	}
	JOINT RightUpLeg_virtual
	{
		OFFSET 0.000000 0.000000 0.000000
		CHANNELS 3 Xrotation Yrotation Zrotation
		JOINT RightUpLeg
		{
			OFFSET -10.205400 -3.823500 0.005500
			CHANNELS 3 Xrotation Yrotation Zrotation
			JOINT RightLeg
			{
				OFFSET -0.708756 -12.982134 0.610632
				CHANNELS 3 Xrotation Yrotation Zrotation
				JOINT RightFoot
				{
					OFFSET 0.708754 -10.717769 -1.945823
					CHANNELS 3 Xrotation Yrotation Zrotation
					JOINT RightToeBase
					{
						OFFSET -0.108140 -7.191069 7.372968
						CHANNELS 3 Xrotation Yrotation Zrotation
						JOINT RightToe_End
						{
							OFFSET -0.070227 0.081735 4.479403
							CHANNELS 3 Xrotation Yrotation Zrotation
							End Site
							{
								OFFSET 0 0 0
							}
						}
					}
				}
			}
		}
	}
	JOINT Spine_virtual
	{
		OFFSET 0.000000 0.000000 0.000000
		CHANNELS 3 Xrotation Yrotation Zrotation
		JOINT Spine
		{
			OFFSET 0.000000 6.876099 0.125700
			CHANNELS 3 Xrotation Yrotation Zrotation
			JOINT Spine1
			{
				OFFSET 0.000000 5.730043 0.104720
				CHANNELS 3 Xrotation Yrotation Zrotation
				JOINT Spine1_split
				{
					OFFSET 0.000000 5.730043 0.104720
					CHANNELS 3 Xrotation Yrotation Zrotation
					JOINT Spine2
					{
						OFFSET 0.000000 5.730043 0.104720
						CHANNELS 3 Xrotation Yrotation Zrotation
						JOINT Neck_virtual
						{
							OFFSET 0.000000 0.000000 0.000000
							CHANNELS 3 Xrotation Yrotation Zrotation
							JOINT Neck
							{
								OFFSET 0.000000 10.314075 0.188496
								CHANNELS 3 Xrotation Yrotation Zrotation
								JOINT Head
								{
									OFFSET 0.000000 7.643700 -2.377400
									CHANNELS 3 Xrotation Yrotation Zrotation
									JOINT HeadTop_End
									{
										OFFSET 0.000000 43.788605 -13.619600
										CHANNELS 3 Xrotation Yrotation Zrotation
										End Site
										{
											OFFSET 0 0 0
										}
									}
								}
							}
						}
						JOINT LeftShoulder_virtual
						{
							OFFSET 0.000000 0.000000 0.000000
							CHANNELS 3 Xrotation Yrotation Zrotation
							JOINT LeftShoulder
							{
								OFFSET 2.196100 4.412489 0.087492
								CHANNELS 3 Xrotation Yrotation Zrotation
								JOINT LeftShoulder_split
								{
									OFFSET 2.196100 4.412489 0.087492
									CHANNELS 3 Xrotation Yrotation Zrotation
									JOINT LeftArm
									{
										OFFSET 8.771219 -2.981674 -0.026999
										CHANNELS 3 Xrotation Yrotation Zrotation
										JOINT LeftForeArm
										{
											OFFSET 8.512804 0.000000 -0.000000
											CHANNELS 3 Xrotation Yrotation Zrotation
											JOINT LeftHand
											{
												OFFSET 18.484802 0.000000 -0.000000
												CHANNELS 3 Xrotation Yrotation Zrotation
												End Site
												{
													OFFSET 0 0 0
												}
											}
										}
									}
								}
							}
						}
						JOINT RightShoulder_virtual
						{
							OFFSET 0.000000 0.000000 0.000000
							CHANNELS 3 Xrotation Yrotation Zrotation
							JOINT RightShoulder
							{
								OFFSET -2.196100 4.412496 0.070690
								CHANNELS 3 Xrotation Yrotation Zrotation
								JOINT RightShoulder_split
								{
									OFFSET -2.196100 4.412496 0.070690
									CHANNELS 3 Xrotation Yrotation Zrotation
									JOINT RightArm
									{
										OFFSET -8.771282 -2.981682 -0.094208
										CHANNELS 3 Xrotation Yrotation Zrotation
										JOINT RightForeArm
										{
											OFFSET -8.494598 0.000000 0.000000
											CHANNELS 3 Xrotation Yrotation Zrotation
											JOINT RightHand
											{
												OFFSET -18.483803 0.000000 0.000001
												CHANNELS 3 Xrotation Yrotation Zrotation
												End Site
												{
													OFFSET 0 0 0
												}
											}
										}
									}
								}
							}
						}
					}
				}
			}
		}
	}
}
MOTION
Frames: 6
Frame Time: 0.03333333
0.955763 26.327751 0.442163 0.000000 0.000000 0.000000 -4.888599 -50.914552 0.566697 -33.306943 7.423154 18.506802 61.333528 -5.761694 4.808252 -29.180235 -6.189672 -17.025242 -1.214129 0.097987 -0.754657 0.000000 0.000000 0.000000 -6.150837 -46.660581 0.842306 -14.704354 -11.167443 -34.416107 61.028792 -5.289912 -7.299297 -42.202356 -15.993731 28.814775 3.628480 1.436641 -1.118525 0.000000 0.000000 0.000000 -4.475864 -49.385095 1.411564 10.091120 6.151165 -1.639667 2.157605 1.189403 -1.000599 0.121997 -0.617497 0.569903 0.000000 0.000000 0.000000 2.679523 1.118673 -0.818593 -1.182642 13.260015 3.446286 8.730297 20.759378 -4.229593 0.000000 0.000000 0.000000 3.435880 0.982578 -1.013760 1.534350 2.440760 -11.631157 -2.256510 0.384194 0.235220 -52.263013 2.095665 -50.628303 -179.056373 -74.755539 -179.102095 0.000000 0.000000 0.000000 3.631068 1.166743 -0.823453 3.298446 11.652538 -5.753979 -2.650459 1.772546 0.558135 -50.183934 26.991873 88.220055 -173.765313 71.621405 171.256147 0.000000 0.000000 0.000000 
0.793963 26.452719 0.496836 0.000000 0.000000 0.000000 -4.704444 -50.835961 0.770138 -33.271378 7.845168 18.537944 60.510067 -6.111615 4.920143 -29.204581 -6.621059 -17.362488 -1.555191 0.103698 -0.376230 0.000000 0.000000 0.000000 -5.768917 -46.905498 1.157503 -14.812329 -12.087258 -34.851829 60.043414 -4.934191 -6.892965 -40.647135 -14.466867 26.996608 3.076030 1.598349 -0.101204 0.000000 0.000000 0.000000 -3.637833 -48.865502 2.048629 9.897226 6.276381 -1.772505 2.270584 1.268146 -1.066804 0.320806 -0.364301 0.548358 0.000000 0.000000 0.000000 2.647523 1.211663 -0.938046 -1.170374 13.163858 3.254074 8.942814 20.710573 -4.114733 0.000000 0.000000 0.000000 3.616411 1.033432 -1.053227 1.476707 1.919357 -11.005020 -2.315172 0.370446 -0.000196 -52.918366 2.778683 -50.419254 -179.539350 -75.530527 -179.381531 0.000000 0.000000 0.000000 3.809489 1.255932 -0.934480 3.404763 11.930265 -5.568889 -2.998083 2.545740 0.815119 -50.737913 27.498647 88.203492 -174.373691 71.939685 172.049405 0.000000 0.000000 0.000000 
0.498626 26.754211 0.529636 0.000000 0.000000 0.000000 -3.975200 -50.268608 1.458530 -33.153605 8.184726 18.443200 59.006960 -6.454208 5.132963 -28.984802 -7.482212 -17.560024 -2.019287 0.099322 0.238331 0.000000 0.000000 0.000000 -4.974042 -46.855439 1.986201 -15.868053 -11.830110 -36.008884 59.447098 -3.725338 -6.426851 -35.445198 -11.650470 26.569214 -1.086891 1.375899 2.425521 0.000000 0.000000 0.000000 -2.485087 -47.652020 3.016805 9.657197 6.563376 -2.043855 2.333274 1.480880 -1.219126 0.434043 -0.227926 0.538055 0.000000 0.000000 0.000000 2.578856 1.413373 -1.121011 -0.912754 13.009699 2.783644 9.232731 20.172125 -3.697352 0.000000 0.000000 0.000000 3.624531 1.221213 -1.188602 1.423013 0.850111 -10.286186 -2.066223 0.095284 -0.437828 -55.012061 3.553891 -49.100218 -179.973408 -75.399408 -179.564608 0.000000 0.000000 0.000000 3.920722 1.442195 -1.134953 3.545861 12.479229 -5.447536 -2.927668 2.478278 0.995034 -52.445908 27.341708 88.070788 -174.707619 72.678322 172.657989 0.000000 0.000000 0.000000 
0.118456 27.160601 0.532501 0.000000 0.000000 0.000000 -2.897575 -49.197938 2.361687 -32.999601 8.334419 18.323016 57.041000 -6.683944 5.396996 -28.557494 -8.583173 -17.539451 -2.368042 0.096200 0.816349 0.000000 0.000000 0.000000 -3.862529 -46.244899 3.047481 -17.194825 -10.609732 -37.276628 59.020020 -2.075675 -6.087523 -29.459781 -8.391491 26.183762 -6.220300 0.557471 5.621107 0.000000 0.000000 0.000000 -1.310005 -46.012659 4.010976 9.387841 6.898940 -2.349986 2.312848 1.723393 -1.370884 0.353059 -0.267639 0.631089 0.000000 0.000000 0.000000 2.520835 1.640561 -1.260451 -0.501056 12.872283 2.167778 9.529915 19.271930 -3.047532 0.000000 0.000000 0.000000 3.463857 1.461767 -1.313815 1.410133 -0.588761 -9.530746 -1.719884 -0.456969 -1.025789 -58.229214 4.305855 -46.722681 179.868988 -74.419706 -179.468521 0.000000 0.000000 0.000000 3.902063 1.643386 -1.315158 3.691979 13.199031 -5.493440 -2.713421 1.615136 1.048660 -55.342636 26.419303 87.905634 -174.736361 73.961352 172.953012 0.000000 0.000000 0.000000 
-0.278461 27.600977 0.501501 0.000000 0.000000 0.000000 -1.767688 -47.747793 3.185018 -32.971270 8.293443 18.325797 54.886092 -6.788969 5.723972 -28.036330 -9.732625 -17.383723 -2.470617 0.107046 1.102793 0.000000 0.000000 0.000000 -2.827450 -45.139214 3.888388 -18.622825 -9.073077 -38.083953 58.987781 -0.988561 -5.728719 -24.892411 -5.857408 24.446709 -8.382332 -0.422900 8.355240 0.000000 0.000000 0.000000 -0.208899 -44.218665 4.797028 9.111841 7.197992 -2.550460 2.215199 1.894598 -1.427510 0.239825 -0.293939 0.733058 0.000000 0.000000 0.000000 2.473543 1.791701 -1.258028 -0.091916 12.738120 1.616226 9.739228 18.254131 -2.263491 0.000000 0.000000 0.000000 3.191802 1.658789 -1.325685 1.461843 -2.199896 -8.850233 -1.588844 -0.936627 -1.542519 -62.225482 4.779386 -43.633116 179.818513 -72.945963 -179.335168 0.000000 0.000000 0.000000 3.734691 1.769773 -1.359558 3.828241 14.025143 -5.730717 -2.562475 0.586803 0.874232 -59.363182 24.788187 87.846464 -174.258739 75.825693 172.640476 0.000000 0.000000 0.000000 
-0.678085 27.992666 0.515114 0.000000 0.000000 0.000000 -0.915204 -46.071573 3.648989 -33.002805 8.152940 18.555686 52.918472 -6.978189 6.147440 -27.353622 -10.764947 -17.515054 -2.398501 0.134733 1.024990 0.000000 0.000000 0.000000 -2.277096 -43.738264 4.257413 -20.087171 -7.880259 -38.334935 59.569522 -0.845431 -5.112321 -22.272195 -4.973019 21.568271 -6.468288 -0.992685 9.803855 0.000000 0.000000 0.000000 0.598452 -42.532110 5.200977 8.857404 7.378639 -2.573798 2.068745 1.904549 -1.343280 0.388746 -0.267181 0.789268 0.000000 0.000000 0.000000 2.445852 1.795626 -1.088245 0.189402 12.628176 1.329497 9.840459 17.358892 -1.463373 0.000000 0.000000 0.000000 2.875074 1.745308 -1.186166 1.563552 -3.878303 -8.366312 -1.588453 -1.253158 -1.902380 -66.246059 4.763386 -40.382373 179.782081 -71.560746 -179.283013 0.000000 0.000000 0.000000 3.477255 1.781255 -1.220357 3.950622 14.804621 -6.132853 -2.501947 -0.128361 0.377328 -64.078396 22.720399 88.113832 -173.043922 78.236436 171.468183 0.000000 0.000000 0.000000 
